<?xml version="1.0" encoding="UTF-8"?>
<!DOCTYPE svg PUBLIC "-//W3C//DTD SVG 1.1//EN" "http://www.w3.org/Graphics/SVG/1.1/DTD/svg11.dtd">
<!-- Creator: CorelDRAW X7 -->
<svg xmlns="http://www.w3.org/2000/svg" xml:space="preserve" width="8.4667mm" height="8.4667mm" version="1.1" style="shape-rendering:geometricPrecision; text-rendering:geometricPrecision; image-rendering:optimizeQuality; fill-rule:evenodd; clip-rule:evenodd"
viewBox="0 0 698 698"
 xmlns:xlink="http://www.w3.org/1999/xlink">
 <defs>
  <style type="text/css">
   <![CDATA[
    .fil1 {fill:none}
    .fil0 {fill:black}
   ]]>
  </style>
   <clipPath id="id0">
    <path d="M0 0l698 0 0 698 -698 0 0 -698z"/>
   </clipPath>
 </defs>
 <g id="Layer_x0020_1">
  <metadata id="CorelCorpID_0Corel-Layer"/>
  <g>
  </g>
  <g style="clip-path:url(#id0)">
   <g>
    <g id="_1768760910160">
     <path class="fil0" d="M72 207c0,48 9,61 28,98l23 40c18,27 48,71 70,95l70 69c3,3 4,3 7,6 13,13 49,39 65,49 11,7 20,13 31,20 6,3 11,6 16,9 6,3 10,6 17,9 35,17 46,24 90,24 32,0 66,-16 85,-30 6,-6 39,-36 44,-43 22,-29 -4,-49 -19,-64l-85 -85c-8,-8 -15,-11 -28,-11 -30,0 -59,61 -82,61 -13,0 -22,-8 -36,-18 -11,-8 -22,-20 -32,-20 -2,0 -27,8 2,30 30,22 55,47 91,26 13,-7 49,-52 57,-52 11,0 8,1 20,12l82 82c19,20 16,17 -16,48 -35,35 -83,48 -133,31 -29,-10 -105,-59 -130,-79l-40 -34c-3,-3 -5,-5 -8,-8 -15,-15 -13,-11 -30,-30 -5,-6 -9,-9 -14,-15 -14,-17 -25,-29 -41,-50 -4,-6 -7,-11 -12,-17 -11,-14 -37,-59 -46,-75 -19,-37 -29,-70 -13,-112 10,-29 23,-40 43,-60 13,-13 17,-22 29,-9l90 89c16,17 16,16 -3,36 -20,19 -46,39 -46,62 0,23 3,25 16,44 3,5 6,9 10,15 6,7 13,15 23,7 4,-3 4,-7 4,-12 0,-9 -28,-33 -28,-49 0,-28 61,-53 61,-83 0,-24 -6,-25 -28,-47l-67 -67c-16,-16 -21,-27 -45,-27 -15,0 -26,14 -35,22 -9,10 -18,19 -27,30 -14,18 -30,51 -30,83z"/>
     <path class="fil0" d="M378 118c0,3 3,7 4,9 7,6 23,4 33,5 41,6 72,22 101,50 4,5 8,8 12,13 21,28 33,52 38,88 1,7 1,17 2,23 3,22 26,14 26,1 0,-57 -22,-105 -60,-143 -15,-15 -37,-32 -57,-41 -28,-11 -49,-19 -86,-19 -7,0 -13,7 -13,14z"/>
     <path class="fil0" d="M378 194c0,3 3,8 6,10 9,6 31,-2 61,18 54,36 43,82 49,92 6,10 24,8 24,-9 0,-67 -58,-125 -125,-125 -9,0 -15,5 -15,14z"/>
     <path class="fil0" d="M378 268c0,24 34,2 38,38 2,21 26,15 26,1 0,-28 -23,-51 -51,-51 -6,0 -13,7 -13,12z"/>
     <path class="fil0" d="M282 389c0,13 14,19 22,11 9,-9 3,-21 -7,-23 -7,-1 -15,6 -15,12z"/>
    </g>
   </g>
  </g>
  <polygon class="fil1" points="0,0 698,0 698,698 0,698 "/>
 </g>
</svg>
